<svg width="32" height="32" viewBox="0 0 32 32" fill="none" xmlns="http://www.w3.org/2000/svg">
  <!-- Background circle -->
  <circle cx="16" cy="16" r="16" fill="#000000"/>
  
  <!-- Nova star burst -->
  <g transform="translate(16, 16)">
    <!-- Main star -->
    <path d="M0 -8L1.5 -2.5L8 -2L2.5 1.5L2 8L-1.5 2.5L-8 2L-2.5 -1.5L-2 -8L1.5 -2.5Z" 
          fill="#ffffff" opacity="0.9"/>
    
    <!-- Smaller accent stars -->
    <circle cx="6" cy="-6" r="1" fill="#ffffff" opacity="0.7"/>
    <circle cx="-6" cy="6" r="1" fill="#ffffff" opacity="0.7"/>
    <circle cx="6" cy="6" r="0.8" fill="#ffffff" opacity="0.5"/>
    <circle cx="-6" cy="-6" r="0.8" fill="#ffffff" opacity="0.5"/>
  </g>
  
  <!-- Store element - shopping bag -->
  <path d="M12 20h8l1-8h-10l1 8z" fill="#ffffff" opacity="0.8"/>
  <path d="M14 12v-1c0-1.1 0.9-2 2-2s2 0.9 2 2v1" stroke="#ffffff" stroke-width="1.5" 
        fill="none" opacity="0.8"/>
</svg>
